<svg xmlns="http://www.w3.org/2000/svg" viewBox="0 0 1200 760" role="img" aria-labelledby="title desc">
  <title id="title">呼伦贝尔家庭自驾 7 天 6 晚路线示意地图</title>
  <desc id="desc">路线从海拉尔出发，经过莫日格勒河、额尔古纳、白桦林、恩和或室韦、根河敖鲁古雅、黑山头、边防公路、满洲里、呼伦湖，最后回到海拉尔。</desc>
  <defs>
    <linearGradient id="paper" x1="0" x2="1" y1="0" y2="1">
      <stop offset="0" stop-color="#f5fbf4"/>
      <stop offset=".55" stop-color="#eef7f4"/>
      <stop offset="1" stop-color="#f8f3df"/>
    </linearGradient>
    <linearGradient id="grass" x1="0" x2="1" y1="0" y2="1">
      <stop offset="0" stop-color="#d8efd9"/>
      <stop offset="1" stop-color="#edf8df"/>
    </linearGradient>
    <linearGradient id="forest" x1="0" x2="1" y1="0" y2="1">
      <stop offset="0" stop-color="#c9e5d3"/>
      <stop offset="1" stop-color="#a9d0bd"/>
    </linearGradient>
    <linearGradient id="lake" x1="0" x2="1" y1="0" y2="1">
      <stop offset="0" stop-color="#a8d9e9"/>
      <stop offset="1" stop-color="#6fb8d2"/>
    </linearGradient>
    <filter id="shadow" x="-20%" y="-20%" width="140%" height="140%">
      <feDropShadow dx="0" dy="10" stdDeviation="12" flood-color="#264048" flood-opacity=".18"/>
    </filter>
    <marker id="arrow" viewBox="0 0 12 12" refX="9" refY="6" markerWidth="8" markerHeight="8" orient="auto-start-reverse">
      <path d="M2 2 L10 6 L2 10 Z" fill="#b94f3c"/>
    </marker>
  </defs>

  <rect width="1200" height="760" rx="30" fill="url(#paper)"/>
  <path d="M79 97 C201 38 373 57 477 109 C601 171 678 141 800 99 C946 48 1051 89 1125 158 L1119 665 C1003 715 892 701 783 662 C647 613 556 639 421 689 C301 733 180 704 73 629 Z" fill="url(#grass)" stroke="#d4e2d0" stroke-width="2"/>
  <path d="M379 86 C486 104 555 161 596 236 C626 291 640 353 683 398 C719 436 780 456 844 447 C786 521 692 558 586 540 C473 521 399 444 369 340 C342 250 322 161 379 86 Z" fill="url(#forest)" opacity=".72"/>
  <path d="M120 519 C194 492 268 503 329 550 C386 594 411 648 391 704 C281 717 179 690 101 628 C78 592 88 544 120 519 Z" fill="url(#lake)" opacity=".82"/>
  <path d="M228 189 C301 234 396 243 470 293 C533 335 575 382 651 392 C733 403 807 359 870 319" fill="none" stroke="#83c5d7" stroke-width="10" stroke-linecap="round" opacity=".62"/>
  <path d="M226 189 C302 233 397 241 471 291 C535 334 575 381 651 391 C733 401 806 357 870 318" fill="none" stroke="#ffffff" stroke-width="3" stroke-linecap="round" opacity=".65"/>
  <path d="M1002 62 C960 133 949 215 970 301 C994 402 973 497 916 580 C884 628 869 673 875 720" fill="none" stroke="#d79a68" stroke-width="3" stroke-dasharray="10 10" opacity=".72"/>
  <text x="985" y="122" fill="#956237" font-size="20" font-weight="700">中俄边境方向</text>
  <text x="148" y="696" fill="#2b6f85" font-size="22" font-weight="800">呼伦湖</text>
  <text x="460" y="170" fill="#2d7650" font-size="18" font-weight="700" opacity=".9">大兴安岭森林带</text>
  <text x="706" y="363" fill="#2c6f9f" font-size="17" font-weight="700" opacity=".85">莫日格勒河</text>

  <path d="M735 520 C675 466 620 424 540 381 C480 347 455 318 408 264" fill="none" stroke="#f7d7bb" stroke-width="24" stroke-linecap="round" stroke-linejoin="round"/>
  <path d="M408 264 C457 196 509 161 575 202" fill="none" stroke="#f7d7bb" stroke-width="24" stroke-linecap="round" stroke-linejoin="round"/>
  <path d="M575 202 C546 274 504 335 446 395 C400 443 348 476 290 513" fill="none" stroke="#f7d7bb" stroke-width="24" stroke-linecap="round" stroke-linejoin="round"/>
  <path d="M290 513 C252 548 218 578 188 614" fill="none" stroke="#f7d7bb" stroke-width="24" stroke-linecap="round" stroke-linejoin="round"/>
  <path d="M188 614 C302 671 542 662 735 520" fill="none" stroke="#f7d7bb" stroke-width="24" stroke-linecap="round" stroke-linejoin="round"/>

  <path d="M735 520 C675 466 620 424 540 381 C480 347 455 318 408 264" fill="none" stroke="#b94f3c" stroke-width="7" stroke-linecap="round" stroke-linejoin="round" marker-end="url(#arrow)"/>
  <path d="M408 264 C457 196 509 161 575 202" fill="none" stroke="#b94f3c" stroke-width="7" stroke-linecap="round" stroke-linejoin="round" marker-end="url(#arrow)"/>
  <path d="M575 202 C546 274 504 335 446 395 C400 443 348 476 290 513" fill="none" stroke="#b94f3c" stroke-width="7" stroke-linecap="round" stroke-linejoin="round" marker-end="url(#arrow)"/>
  <path d="M290 513 C252 548 218 578 188 614" fill="none" stroke="#b94f3c" stroke-width="7" stroke-linecap="round" stroke-linejoin="round" marker-end="url(#arrow)"/>
  <path d="M188 614 C302 671 542 662 735 520" fill="none" stroke="#b94f3c" stroke-width="7" stroke-linecap="round" stroke-linejoin="round" marker-end="url(#arrow)"/>

  <g font-family="-apple-system,BlinkMacSystemFont,'Segoe UI','Microsoft YaHei',sans-serif">
    <g transform="translate(735 520)">
      <circle r="12" fill="#15242b"/>
      <rect x="18" y="-39" width="180" height="70" rx="12" fill="#fff" stroke="#d9e2e7" filter="url(#shadow)"/>
      <text x="36" y="-14" fill="#17212b" font-size="22" font-weight="800">海拉尔</text>
      <text x="36" y="12" fill="#607080" font-size="15">D1 抵达 / D7 返程</text>
    </g>
    <g transform="translate(610 427)">
      <circle r="9" fill="#2c6f9f"/>
      <rect x="18" y="-34" width="162" height="63" rx="12" fill="#fff" stroke="#d9e2e7"/>
      <text x="34" y="-11" fill="#17212b" font-size="20" font-weight="800">莫日格勒河</text>
      <text x="34" y="13" fill="#607080" font-size="14">D2 草原曲水</text>
    </g>
    <g transform="translate(540 381)">
      <circle r="11" fill="#2c7a4b"/>
      <rect x="-176" y="-12" width="158" height="62" rx="12" fill="#fff" stroke="#d9e2e7"/>
      <text x="-159" y="12" fill="#17212b" font-size="20" font-weight="800">额尔古纳</text>
      <text x="-159" y="35" fill="#607080" font-size="14">D2 湿地日落</text>
    </g>
    <g transform="translate(408 264)">
      <circle r="10" fill="#2c7a4b"/>
      <rect x="-188" y="-48" width="172" height="64" rx="12" fill="#fff" stroke="#d9e2e7"/>
      <text x="-171" y="-24" fill="#17212b" font-size="20" font-weight="800">恩和 / 室韦</text>
      <text x="-171" y="0" fill="#607080" font-size="14">D3 边境小镇</text>
    </g>
    <g transform="translate(575 202)">
      <circle r="11" fill="#2c7a4b"/>
      <rect x="20" y="-54" width="190" height="72" rx="12" fill="#fff" stroke="#d9e2e7" filter="url(#shadow)"/>
      <text x="38" y="-29" fill="#17212b" font-size="20" font-weight="800">根河 · 敖鲁古雅</text>
      <text x="38" y="-4" fill="#b94f3c" font-size="15" font-weight="800">D4 喂驯鹿</text>
    </g>
    <g transform="translate(290 513)">
      <circle r="10" fill="#b66a1a"/>
      <rect x="-174" y="-53" width="152" height="64" rx="12" fill="#fff" stroke="#d9e2e7"/>
      <text x="-157" y="-29" fill="#17212b" font-size="20" font-weight="800">黑山头</text>
      <text x="-157" y="-5" fill="#607080" font-size="14">D5 草原日落</text>
    </g>
    <g transform="translate(188 614)">
      <circle r="12" fill="#b94f3c"/>
      <rect x="18" y="-37" width="155" height="64" rx="12" fill="#fff" stroke="#d9e2e7" filter="url(#shadow)"/>
      <text x="36" y="-13" fill="#17212b" font-size="20" font-weight="800">满洲里</text>
      <text x="36" y="11" fill="#607080" font-size="14">D6 城市夜景</text>
    </g>
    <g transform="translate(384 640)">
      <circle r="8" fill="#2c6f9f"/>
      <rect x="16" y="-31" width="116" height="54" rx="12" fill="#fff" stroke="#d9e2e7"/>
      <text x="31" y="-10" fill="#17212b" font-size="18" font-weight="800">呼伦湖</text>
      <text x="31" y="11" fill="#607080" font-size="13">D7 可选</text>
    </g>
  </g>

  <g transform="translate(62 58)" font-family="-apple-system,BlinkMacSystemFont,'Segoe UI','Microsoft YaHei',sans-serif">
    <rect width="368" height="116" rx="18" fill="#ffffff" stroke="#d9e2e7" filter="url(#shadow)"/>
    <text x="24" y="40" fill="#17212b" font-size="28" font-weight="850">呼伦贝尔自驾小环线</text>
    <text x="24" y="72" fill="#607080" font-size="16">海拉尔进出 · 7 天 6 晚 · 重点包含敖鲁古雅喂驯鹿</text>
    <text x="24" y="98" fill="#956237" font-size="14">示意图：用于行程理解，实际导航请以地图软件和实时路况为准。</text>
  </g>

  <g transform="translate(1000 610)" font-family="-apple-system,BlinkMacSystemFont,'Segoe UI','Microsoft YaHei',sans-serif">
    <circle cx="42" cy="42" r="38" fill="#ffffff" stroke="#d9e2e7"/>
    <path d="M42 13 L52 44 L42 37 L32 44 Z" fill="#15242b"/>
    <text x="36" y="67" fill="#15242b" font-size="16" font-weight="800">N</text>
  </g>
</svg>
